<svg width="126" height="30" viewBox="0 0 126 30" fill="none" xmlns="http://www.w3.org/2000/svg">
    <path d="M5 24.1666H15V29H0V4.83333H15V9.66665H5V14.5H15V19.3333H5V24.1666ZM20 14.5H15V9.66665H20V14.5ZM20 24.1666H15V19.3333H20V24.1666ZM25 4.83333V0H30V4.83333H25ZM30 29H25V9.66665H30V29ZM39.9999 24.1666H34.9998V4.83333H39.9999V9.66665H45V14.5H39.9999V24.1666ZM39.9999 29V24.1666H45V29H39.9999Z" fill="white"/>
    <path d="M54 29.5442V5H68.5528V7.45442H56.4876V15.1683H66.8468V17.6227H56.4876V29.5442H54ZM70.3806 29.5442V12.0126H72.8682V14.432C73.4962 13.5437 74.3136 12.8366 75.3205 12.3106C76.3273 11.7847 77.4232 11.5217 78.6077 11.5217C79.2946 11.5217 79.958 11.6094 80.5978 11.7847L79.5849 14.2216C79.0873 14.0696 78.6016 13.9937 78.128 13.9937C77.1683 13.9937 76.2859 14.2275 75.4802 14.695C74.6867 15.1625 74.053 15.7877 73.5791 16.5708C73.1052 17.3539 72.8682 18.2246 72.8682 19.183V29.5442H70.3806ZM89.7211 30C88.0863 30 86.5937 29.5851 85.2433 28.7553C83.9048 27.9254 82.8325 26.8151 82.0272 25.4243C81.2334 24.0218 80.8367 22.4731 80.8367 20.7784C80.8367 19.4928 81.0676 18.2948 81.5297 17.1844C81.9915 16.0624 82.6252 15.0806 83.4308 14.2391C84.2483 13.3859 85.1958 12.7197 86.2738 12.2405C87.3518 11.7613 88.5009 11.5217 89.7211 11.5217C91.3559 11.5217 92.8425 11.9367 94.181 12.7665C95.5314 13.5963 96.6036 14.7125 97.3971 16.115C98.2027 17.5175 98.6055 19.072 98.6055 20.7784C98.6055 22.0524 98.3746 23.2445 97.9125 24.3548C97.4507 25.4652 96.8109 26.4469 95.9935 27.3001C95.1879 28.1417 94.2461 28.802 93.1681 29.2812C92.1022 29.7604 90.9531 30 89.7211 30ZM89.7211 27.5456C90.9292 27.5456 92.0132 27.2359 92.9729 26.6164C93.944 25.9853 94.7082 25.1554 95.265 24.127C95.8337 23.0984 96.1179 21.9822 96.1179 20.7784C96.1179 19.5512 95.8337 18.4233 95.265 17.3948C94.6964 16.3546 93.9265 15.5248 92.955 14.9053C91.9954 14.2859 90.9174 13.9762 89.7211 13.9762C88.5127 13.9762 87.4229 14.2917 86.4514 14.9229C85.4921 15.5423 84.7279 16.3663 84.1593 17.3948C83.6027 18.4233 83.3243 19.5512 83.3243 20.7784C83.3243 22.0407 83.6145 23.1861 84.195 24.2146C84.7754 25.2314 85.5514 26.0437 86.5225 26.6515C87.494 27.2476 88.5602 27.5456 89.7211 27.5456ZM107.14 29.8773C106.169 29.8539 105.221 29.6786 104.297 29.3513C103.374 29.0241 102.568 28.58 101.881 28.0189C101.194 27.4579 100.702 26.821 100.406 26.108L102.556 25.1964C102.746 25.6522 103.095 26.0729 103.604 26.4586C104.126 26.8326 104.718 27.1365 105.381 27.3703C106.045 27.5923 106.702 27.7034 107.354 27.7034C108.076 27.7034 108.752 27.5865 109.379 27.3528C110.007 27.119 110.517 26.7859 110.908 26.3535C111.31 25.9093 111.512 25.3892 111.512 24.7931C111.512 24.1503 111.298 23.6477 110.872 23.2854C110.445 22.9114 109.906 22.6192 109.255 22.4089C108.603 22.1868 107.934 21.9764 107.247 21.7777C105.991 21.4388 104.884 21.0647 103.924 20.6557C102.965 20.2466 102.213 19.7265 101.668 19.0954C101.135 18.4526 100.868 17.6286 100.868 16.6234C100.868 15.5598 101.17 14.6423 101.774 13.871C102.39 13.0879 103.19 12.486 104.173 12.0652C105.168 11.6328 106.228 11.4165 107.354 11.4165C108.799 11.4165 110.114 11.7263 111.298 12.3457C112.495 12.9652 113.36 13.7892 113.893 14.8177L111.885 15.9923C111.671 15.5131 111.334 15.0982 110.872 14.7475C110.41 14.3969 109.883 14.1223 109.291 13.9235C108.71 13.7249 108.118 13.6197 107.514 13.608C106.755 13.5963 106.051 13.7073 105.399 13.9411C104.747 14.1632 104.22 14.4962 103.818 14.9404C103.427 15.3845 103.231 15.928 103.231 16.5708C103.231 17.2137 103.427 17.7046 103.818 18.0435C104.208 18.3707 104.736 18.6396 105.399 18.8499C106.074 19.0486 106.832 19.2824 107.674 19.5512C108.752 19.8901 109.764 20.2758 110.712 20.7083C111.66 21.1407 112.424 21.6784 113.004 22.3212C113.585 22.964 113.869 23.7763 113.857 24.7581C113.857 25.81 113.537 26.7274 112.898 27.5105C112.258 28.2936 111.429 28.8955 110.41 29.3163C109.391 29.7254 108.301 29.9124 107.14 29.8773ZM126 14.467H121.753L121.735 29.5442H119.248L119.265 14.467H116.049V12.0126H119.265L119.248 6.50771H121.735L121.753 12.0126H126V14.467Z" fill="white"/>
</svg>
