<svg width="234" height="234" viewBox="0 0 234 234" fill="none" xmlns="http://www.w3.org/2000/svg">
<path d="M152.373 59.7032V21.2344L77.4604 57.8072L116.447 77.007L152.373 59.7032Z" fill="url(#paint0_linear_1_2882)"/>
<path d="M159.029 166.711L203.14 188.926L202.83 110.363L159.394 132.036L159.029 166.711Z" fill="url(#paint1_linear_1_2882)"/>
<path d="M116.155 232L158.564 210.869L159.782 95.0381L115.866 116.323L116.155 232Z" fill="#0D1C2B"/>
<path d="M77.9239 174.297L39.3814 193.802V116.052L78.0793 135.015L77.9239 174.297Z" fill="url(#paint2_linear_1_2882)"/>
<path d="M116.754 2L1.30895 58.6796L115.866 116.323L159.782 95.0381L231 60.2451L191.686 40.1979L152.373 59.7032L116.447 77.007L77.4604 57.8072L152.373 21.2344L116.754 2Z" fill="#5EA9FF"/>
<path d="M1 175.109L1.30895 58.6796L115.866 116.323L116.155 232L77.77 212.996L78.0793 135.015L39.3814 116.052V193.802L1 175.109Z" fill="#37679E"/>
<path d="M231 60.2451L159.782 95.0381L159.394 132.036L202.83 110.363L203.14 188.926L231 175.38V60.2451Z" fill="#0D1C2B"/>
<path d="M159.394 132.036L115.96 153.8L115.866 116.323L159.782 95.0381L159.394 132.036Z" fill="#0D1C2B"/>
<path d="M152.373 21.2344V59.7032M152.373 21.2344L77.4604 57.8072L116.447 77.007L152.373 59.7032M152.373 21.2344L116.754 2L1.30895 58.6796M152.373 59.7032L191.686 40.1979L231 60.2451M203.14 188.926L159.029 166.711L159.394 132.036M203.14 188.926L202.83 110.363L159.394 132.036M203.14 188.926L231 175.38V60.2451M159.394 132.036L159.782 95.0381M159.394 132.036L115.96 153.8L115.866 116.323M116.155 232L158.564 210.869L159.782 95.0381M116.155 232L115.866 116.323M116.155 232L77.77 212.996L78.0793 135.015M115.866 116.323L159.782 95.0381M115.866 116.323L1.30895 58.6796M159.782 95.0381L231 60.2451M39.3814 193.802L77.9239 174.297L78.0793 135.015M39.3814 193.802V116.052L78.0793 135.015M39.3814 193.802L1 175.109L1.30895 58.6796" stroke="url(#paint3_linear_1_2882)" stroke-width="1.84"/>
<defs>
<linearGradient id="paint0_linear_1_2882" x1="127.5" y1="82.5" x2="127.5" y2="-46.3" gradientUnits="userSpaceOnUse">
<stop offset="0.045" stop-color="#050A10"/>
<stop offset="0.291325" stop-color="#254A76"/>
</linearGradient>
<linearGradient id="paint1_linear_1_2882" x1="161.978" y1="135.416" x2="196.5" y2="181.4" gradientUnits="userSpaceOnUse">
<stop offset="0.045" stop-color="#050A10"/>
<stop offset="0.791119" stop-color="#254A76"/>
</linearGradient>
<linearGradient id="paint2_linear_1_2882" x1="81.5" y1="128.5" x2="40.1" y2="197.5" gradientUnits="userSpaceOnUse">
<stop offset="0.045" stop-color="#050A10"/>
<stop offset="0.67" stop-color="#254A76"/>
</linearGradient>
<linearGradient id="paint3_linear_1_2882" x1="165.286" y1="14.3214" x2="13.3214" y2="158.071" gradientUnits="userSpaceOnUse">
<stop stop-color="#5EA9FF"/>
<stop offset="0.431958" stop-color="#5EA9FF"/>
<stop offset="0.64259" stop-color="#5EA9FF"/>
<stop offset="1" stop-color="#37679E"/>
</linearGradient>
</defs>
</svg>
