<svg version="1.1" id="Layer_1" xmlns="http://www.w3.org/2000/svg" xmlns:xlink="http://www.w3.org/1999/xlink" x="0px" y="0px"
	 width="100%" viewBox="0 0 80 80" enable-background="new 0 0 80 80" xml:space="preserve">
<path fill="#0A2A26" opacity="1.000000" stroke="none"
	d="
M32.000000,1.000000
	C37.022091,1.000000 42.044186,1.000000 47.667259,1.358722
	C63.221439,4.821957 73.302299,13.613764 78.772415,27.812069
	C79.448517,29.566969 80.254303,31.271910 81.000000,33.000000
	C81.000000,38.354931 81.000000,43.709858 80.647675,49.624779
	C76.390579,62.385624 69.452705,72.067856 57.427109,77.418686
	C54.360664,78.783096 51.146362,79.815208 48.000000,81.000000
	C42.977909,81.000000 37.955814,81.000000 32.374496,80.647675
	C16.849350,75.583313 6.545398,66.170792 2.062932,50.852818
	C1.958360,50.495461 1.365242,50.281075 1.000000,50.000000
	C1.000000,44.311958 1.000000,38.623920 1.352307,32.375515
	C6.416668,16.848839 15.828640,6.544219 31.148207,2.063525
	C31.505278,1.959088 31.719269,1.365453 32.000000,1.000000
M67.078995,29.708208
	C66.229279,28.098310 65.566635,26.350395 64.498047,24.901974
	C59.379547,17.964079 52.542614,18.308416 48.244377,25.671820
	C47.075207,27.674749 46.141518,29.815708 44.962025,31.811937
	C40.420300,39.498581 33.860180,40.098709 28.096128,33.397953
	C27.229469,32.390453 26.448046,31.299805 25.510046,30.365192
	C21.303610,26.173956 15.482327,26.920469 14.226722,32.633369
	C12.999443,38.217381 13.350210,44.370743 14.222447,50.088974
	C14.594312,52.526859 17.728527,55.533756 20.220371,56.307056
	C21.860758,56.816128 25.187098,54.262505 26.740522,52.281906
	C34.514263,42.370506 40.060280,42.596973 46.736591,53.480278
	C47.084103,54.046776 47.452011,54.600910 47.793167,55.171127
	C49.815605,58.551453 52.184437,61.890572 56.541435,61.599663
	C61.278717,61.283360 64.238525,58.021912 66.097855,53.822742
	C69.471519,46.203541 69.603981,38.394951 67.078995,29.708208
z"/>

<path fill="#94F8E0" opacity="1.000000" stroke="none"
	d="
M67.202927,30.088509
	C69.603981,38.394951 69.471519,46.203541 66.097855,53.822742
	C64.238525,58.021912 61.278717,61.283360 56.541435,61.599663
	C52.184437,61.890572 49.815605,58.551453 47.793167,55.171127
	C47.452011,54.600910 47.084103,54.046776 46.736591,53.480278
	C40.060280,42.596973 34.514263,42.370506 26.740522,52.281906
	C25.187098,54.262505 21.860758,56.816128 20.220371,56.307056
	C17.728527,55.533756 14.594312,52.526859 14.222447,50.088974
	C13.350210,44.370743 12.999443,38.217381 14.226722,32.633369
	C15.482327,26.920469 21.303610,26.173956 25.510046,30.365192
	C26.448046,31.299805 27.229469,32.390453 28.096128,33.397953
	C33.860180,40.098709 40.420300,39.498581 44.962025,31.811937
	C46.141518,29.815708 47.075207,27.674749 48.244377,25.671820
	C52.542614,18.308416 59.379547,17.964079 64.498047,24.901974
	C65.566635,26.350395 66.229279,28.098310 67.202927,30.088509
z"/>
</svg>