<svg width="73" height="73" viewBox="0 0 73 73" fill="none" xmlns="http://www.w3.org/2000/svg">
  <path fill-rule="evenodd" clip-rule="evenodd" d="M40.2469 18.0166L51.0635 7.19995L56.4331 12.5695L36.45 32.5526L16.4669 12.5695L21.8365 7.19995L32.6531 18.0166V0H40.2469V18.0166ZM56.4331 60.3305L51.0635 65.7001L40.2469 54.8834L40.2469 72.9H32.6531L32.6531 54.8834L21.8365 65.7001L16.4669 60.3305L36.45 40.3474L56.4331 60.3305ZM12.5696 56.4331L7.19997 51.0635L18.0166 40.2469H0V32.6531H18.0166L7.19997 21.8365L12.5696 16.4669L32.5527 36.45L12.5696 56.4331ZM60.3305 16.4669L65.7001 21.8365L54.8834 32.6531H72.9V40.2469H54.8834L65.7001 51.0635L60.3305 56.4331L40.3474 36.45L60.3305 16.4669Z" fill="white"/>
</svg>
