<svg xmlns="http://www.w3.org/2000/svg" width="64" height="65" viewBox="0 0 64 65" fill="none">
  <rect y="0.5" width="64" height="64" rx="11.6364" fill="white" fill-opacity="0.12"/>
  <path d="M21.6731 31.4213C21.4481 30.9982 21.6457 30.4791 22.0883 30.2956C22.4918 30.1282 22.9546 30.3021 23.1625 30.6863C24.0203 32.272 25.0979 33.8393 26.3895 35.3312C26.6838 35.6711 26.674 36.1823 26.3561 36.5002C26.0186 36.8377 25.4672 36.827 25.1546 36.4665C23.7589 34.8565 22.5946 33.1539 21.6731 31.4213Z" fill="white"/>
  <path d="M29.1236 38.0799C28.7839 37.7826 28.2703 37.791 27.9511 38.1103C27.6149 38.4464 27.624 38.9954 27.9815 39.3088C29.5152 40.6533 31.1349 41.7867 32.7859 42.6993C33.2106 42.934 33.7392 42.7377 33.9251 42.2895C34.0906 41.8903 33.9228 41.4321 33.5459 41.2205C32.0349 40.3719 30.5442 39.3234 29.1236 38.0799Z" fill="white"/>
  <path d="M41.0494 34.654C41.254 35.0442 41.7205 35.2231 42.1275 35.0543C42.5656 34.8727 42.7641 34.3612 42.5469 33.9396C41.5803 32.0632 40.3292 30.2177 38.8079 28.4823C38.4945 28.1248 37.9455 28.1158 37.6094 28.4519C37.2902 28.7711 37.2817 29.2848 37.579 29.6244C38.9888 31.235 40.148 32.9357 41.0494 34.654Z" fill="white"/>
  <path d="M35.9657 25.6555C36.3262 25.9681 36.3368 26.5195 35.9994 26.8569C35.6814 27.1749 35.1703 27.1848 34.8303 26.8904C33.147 25.433 31.3676 24.2481 29.5742 23.3439C29.1766 23.1435 28.9913 22.6723 29.1619 22.261C29.3412 21.8286 29.8431 21.629 30.2626 21.8365C32.2214 22.805 34.1523 24.0835 35.9657 25.6555Z" fill="white"/>
  <path fill-rule="evenodd" clip-rule="evenodd" d="M13.4222 22.7028C12.2768 23.8482 11.4595 25.2302 10.9562 26.7718C10.8034 27.2399 11.168 27.7004 11.6603 27.7001C12.0089 27.6999 12.3098 27.4622 12.4156 27.1301C12.8414 25.7934 13.5278 24.6435 14.4453 23.726C14.6777 23.4935 15.0451 23.7216 14.9892 24.0455C14.8229 25.0078 14.7614 26.0144 14.8019 27.0501C14.7995 27.2571 14.8039 27.4685 14.8152 27.686C14.8156 27.6929 14.8213 27.6983 14.8282 27.6983C14.835 27.6983 14.8406 27.7035 14.8412 27.7103C14.8824 28.2276 14.9484 28.7512 15.0389 29.2794C15.0997 29.6345 15.2387 30.2965 15.3251 30.6463C16.3133 34.6447 18.6534 38.8057 22.2086 42.3609C25.7252 45.8775 29.8346 48.2053 33.7931 49.2117C33.8722 49.2318 34.0223 49.2692 34.1806 49.3061C34.9448 49.4842 35.7024 49.6126 36.448 49.6904C36.6881 49.7155 37.4111 49.7639 37.5862 49.77C38.5982 49.8054 39.5821 49.743 40.5236 49.5803C40.8466 49.5245 41.0739 49.891 40.8421 50.1228C39.8367 51.1283 38.5522 51.8561 37.0487 52.2677C36.7004 52.363 36.4463 52.6715 36.4461 53.0325C36.4458 53.5148 36.888 53.878 37.3521 53.747C39.0728 53.2611 40.611 52.4002 41.8653 51.146L46.2185 46.7927C46.2652 46.7478 46.3115 46.7024 46.3574 46.6565C46.4034 46.6105 46.4488 46.5642 46.4937 46.5175L50.6451 42.3661C51.5522 41.459 52.2535 40.4034 52.7561 39.2377C52.9604 38.7637 52.5942 38.2599 52.078 38.2601C51.757 38.2603 51.4736 38.4634 51.3479 38.7588C50.9262 39.75 50.3461 40.6189 49.622 41.343C49.4623 41.5027 49.1819 41.3447 49.2257 41.1232C49.4031 40.2251 49.4872 39.2863 49.4802 38.3194C49.4817 38.301 49.4832 38.2826 49.4846 38.2642C49.4847 38.2628 49.4835 38.2616 49.4821 38.2616C49.4808 38.2616 49.4797 38.2605 49.4797 38.2592C49.4714 37.5185 49.41 36.7616 49.2963 35.9942C49.2072 35.3935 49.0152 34.4942 48.91 34.0814C47.902 30.1263 45.5754 26.0211 42.0619 22.5076C38.5478 18.9935 34.4419 16.6667 30.4861 15.659C29.7202 15.4857 29.0154 15.3224 28.1522 15.2157C26.5109 15.0126 24.9231 15.052 23.4458 15.3438C23.2235 15.3878 23.0649 15.1064 23.2251 14.9461C23.8535 14.3178 24.5909 13.7978 25.4226 13.3957C25.6993 13.262 25.8859 12.9877 25.8861 12.6804C25.8864 12.1514 25.3595 11.7851 24.884 12.0169C23.8943 12.4993 22.9918 13.1332 22.202 13.923L13.4222 22.7028ZM17.4573 22.1284C17.5562 21.8985 17.7442 21.7271 17.9838 21.6546C18.5623 21.4795 19.1123 21.9532 19.1323 22.5573C19.1879 24.2305 19.513 25.9834 20.0958 27.7508C20.2409 28.191 20.7326 28.4039 21.1608 28.2264C21.5691 28.057 21.7674 27.5945 21.6267 27.1754C21.3301 26.2921 21.1033 25.4162 20.9473 24.5576C20.9393 24.514 20.9316 24.4704 20.924 24.4269C20.6099 22.6199 22.119 21.1108 23.926 21.4249C23.9695 21.4324 24.0131 21.4402 24.0567 21.4481C24.704 21.5657 25.3612 21.7236 26.0239 21.9213C26.4362 22.0442 26.8806 21.8448 27.0454 21.4474C27.2265 21.0107 27.0003 20.5104 26.5465 20.378C24.5989 19.8099 22.6796 19.5584 20.8767 19.6395C20.6176 19.666 20.2138 19.7258 19.7992 19.7872C19.6617 19.8075 19.5231 19.8281 19.3881 19.8476C19.1934 19.8759 19.0759 19.6531 19.215 19.514C21.4117 17.3174 24.8099 16.4673 28.7732 17.1723C32.7288 17.876 37.0643 20.117 40.7584 23.8111C44.4525 27.5052 46.6935 31.8406 47.3971 35.7963C48.1021 39.7595 47.2521 43.1577 45.0554 45.3544C44.9113 45.4985 44.6791 45.3734 44.709 45.1719L44.9287 43.6914C45.0151 41.7678 44.723 39.7118 44.0718 37.6303C43.9321 37.184 43.4366 36.9653 43.0047 37.1444C42.6012 37.3117 42.4023 37.7663 42.5351 38.1824C42.7858 38.9678 42.981 39.7465 43.12 40.5114C43.1279 40.555 43.1357 40.5986 43.1432 40.6421C43.4574 42.4491 41.9482 43.9582 40.1412 43.6441C40.0977 43.6365 40.0542 43.6288 40.0105 43.6209C39.0363 43.4438 38.0397 43.1756 37.0353 42.8177C36.6128 42.6672 36.1404 42.8647 35.9686 43.2789C35.7929 43.7025 35.9987 44.1894 36.4314 44.3411C38.3286 45.0062 40.2146 45.3759 42.0089 45.4357C42.6139 45.4559 43.0885 46.0067 42.913 46.5861C42.8403 46.8261 42.6686 47.0144 42.4382 47.1134C40.4949 47.9482 38.1198 48.1626 35.4973 47.6961C31.5416 46.9925 27.2062 44.7515 23.5121 41.0574C19.818 37.3633 17.5769 33.0278 16.8733 29.0722C16.4066 26.4484 16.6214 24.0722 17.4573 22.1284Z" fill="white"/>
  <path d="M10.3444 30.704C10.3477 30.2906 10.6913 29.9682 11.1047 29.968C11.5505 29.9677 11.904 30.3404 11.9105 30.7861C11.9223 31.6005 12.0067 32.4529 12.1674 33.3374C12.3186 34.1694 12.5362 35.0175 12.8194 35.873C12.9579 36.2912 12.7595 36.7515 12.3525 36.9203C11.9232 37.0983 11.4305 36.8837 11.2869 36.4418C10.6495 34.4802 10.3299 32.5379 10.3444 30.704Z" fill="white"/>
  <path d="M28.8022 10.924C28.4281 10.9638 28.1544 11.2861 28.1542 11.6623C28.1539 12.1322 28.5742 12.4897 29.0426 12.4516C30.2189 12.3559 31.4905 12.4237 32.8366 12.6683C33.4567 12.781 34.0859 12.9306 34.7205 13.1168C35.1318 13.2375 35.5739 13.038 35.7381 12.642C35.9197 12.2042 35.6916 11.7028 35.236 11.5721C33.0087 10.9333 30.8201 10.7092 28.8022 10.924Z" fill="white"/>
  <path d="M33.4154 54.2207C33.8401 54.2298 34.1781 53.8801 34.1783 53.4553C34.1786 53.0167 33.8194 52.6649 33.3813 52.6461C32.6893 52.6163 31.9712 52.5353 31.2307 52.4007C30.1387 52.2023 29.0188 51.8893 27.8912 51.4639C27.4655 51.3033 26.9831 51.4999 26.8088 51.9201C26.6351 52.339 26.8337 52.821 27.2588 52.979C29.3539 53.758 31.4422 54.1784 33.4154 54.2207Z" fill="white"/>
  <path d="M52.9382 35.9921C53.3266 35.9919 53.6562 35.7025 53.6846 35.3151C53.8432 33.1554 53.5131 30.8157 52.7227 28.4521C52.576 28.0135 52.0854 27.8023 51.6583 27.9795C51.2486 28.1494 51.0505 28.6141 51.1934 29.0339C51.5033 29.9443 51.7391 30.8471 51.8998 31.7315C52.1171 32.927 52.1948 34.0636 52.1425 35.127C52.1198 35.5883 52.4763 35.9924 52.9382 35.9921Z" fill="white"/>
  <path d="M24.4239 49.8045C24.7932 50.0198 24.955 50.4732 24.7913 50.8681C24.603 51.322 24.0648 51.5168 23.6387 51.2721C22.1366 50.4095 20.664 49.3635 19.2623 48.1417C18.9033 47.8287 18.8935 47.2785 19.2303 46.9417C19.5488 46.6231 20.0612 46.6139 20.401 46.9097C21.6969 48.0378 23.0504 49.0039 24.4239 49.8045Z" fill="white"/>
  <path d="M46.4408 19.7311C46.7776 19.3943 47.3278 19.4042 47.6408 19.7632C49.0378 21.3658 50.2049 23.0612 51.1309 24.7873C51.3581 25.2107 51.1608 25.732 50.7169 25.916C50.3144 26.0829 49.8526 25.9104 49.6439 25.5279C48.7819 23.9479 47.7017 22.3871 46.4089 20.9019C46.1131 20.5621 46.1222 20.0497 46.4408 19.7311Z" fill="white"/>
  <path d="M16.4277 45.3072C16.7407 45.6662 17.2909 45.676 17.6277 45.3393C17.9462 45.0207 17.9554 44.5082 17.6596 44.1684C16.3247 42.6352 15.2164 41.0212 14.341 39.3889C14.134 39.003 13.6702 38.8277 13.2657 38.9954C12.8244 39.1784 12.6265 39.6953 12.8493 40.118C13.7891 41.9011 14.986 43.6536 16.4277 45.3072Z" fill="white"/>
  <path d="M44.8384 18.1285C45.1752 17.7917 45.1654 17.2416 44.8064 16.9286C42.9495 15.3097 40.9678 13.9994 38.9582 13.0152C38.5391 12.81 38.0394 13.0098 37.8607 13.4408C37.6897 13.8531 37.8765 14.3254 38.2758 14.5248C40.1161 15.4441 41.9429 16.6589 43.6676 18.1605C44.0074 18.4563 44.5198 18.4471 44.8384 18.1285Z" fill="white"/>
</svg>