<svg width="500" height="128" viewBox="0 0 500 128" fill="none" xmlns="http://www.w3.org/2000/svg">
<path d="M43.3462 61.8433C42.8962 60.9972 43.2914 59.9589 44.1766 59.5918V59.5918C44.9836 59.2572 45.9092 59.605 46.3249 60.3734C48.0406 63.5447 50.1957 66.6793 52.779 69.663C53.3677 70.3429 53.348 71.3653 52.7121 72.0012V72.0012C52.0373 72.6761 50.9343 72.6548 50.3092 71.9337C47.5177 68.7138 45.1891 65.3085 43.3462 61.8433Z" fill="white"/>
<path d="M58.2472 75.1605C57.5678 74.5659 56.5405 74.5828 55.9021 75.2212V75.2212C55.2298 75.8936 55.248 76.9915 55.963 77.6183C59.0304 80.3072 62.2697 82.5742 65.5718 84.3993C66.4211 84.8687 67.4784 84.4762 67.8501 83.5798V83.5798C68.1812 82.7813 67.8455 81.865 67.0919 81.4418C64.0697 79.7446 61.0884 77.6476 58.2472 75.1605Z" fill="white"/>
<path d="M82.0987 68.3088C82.508 69.0891 83.4411 69.4469 84.255 69.1094V69.1094C85.1312 68.7461 85.5283 67.7231 85.0939 66.8799C83.1606 63.1272 80.6584 59.4362 77.6158 55.9654C76.989 55.2504 75.8911 55.2322 75.2188 55.9046V55.9046C74.5804 56.543 74.5634 57.5703 75.158 58.2496C77.9777 61.4708 80.296 64.8721 82.0987 68.3088Z" fill="white"/>
<path d="M71.9313 50.3117C72.6524 50.9369 72.6736 52.0397 71.9988 52.7146V52.7146C71.3628 53.3505 70.3406 53.3702 69.6607 52.7816C66.294 49.8667 62.7352 47.497 59.1484 45.6886C58.3532 45.2877 57.9826 44.3453 58.3237 43.5227V43.5227C58.6823 42.658 59.6861 42.2588 60.5252 42.6737C64.4429 44.6108 68.3047 47.1677 71.9313 50.3117Z" fill="white"/>
<path fill-rule="evenodd" clip-rule="evenodd" d="M26.8443 44.4064C24.5536 46.6971 22.919 49.4612 21.9125 52.5444C21.6069 53.4805 22.3359 54.4015 23.3206 54.401V54.401C24.0178 54.4006 24.6197 53.9252 24.8313 53.2609C25.6828 50.5875 27.0555 48.2877 28.8906 46.4527V46.4527C29.3554 45.9878 30.0903 46.4439 29.9783 47.0917C29.6458 49.0163 29.5227 51.0296 29.6037 53.101C29.5989 53.5149 29.6078 53.9377 29.6305 54.3728C29.6312 54.3866 29.6426 54.3974 29.6564 54.3974V54.3974C29.67 54.3974 29.6813 54.4078 29.6824 54.4214C29.7649 55.456 29.8969 56.5032 30.0778 57.5594C30.1994 58.2697 30.4774 59.5938 30.6503 60.2933V60.2933C32.6267 68.2901 37.3067 76.6121 44.4171 83.7225C51.4504 90.7558 59.6693 95.4112 67.5862 97.4242C67.7443 97.4643 68.0445 97.5392 68.3613 97.613C69.8896 97.9691 71.4047 98.226 72.896 98.3815C73.3762 98.4316 74.8222 98.5286 75.1724 98.5408C77.1965 98.6115 79.1642 98.4867 81.0471 98.1614C81.6932 98.0498 82.1478 98.7828 81.6842 99.2464V99.2464C79.6734 101.257 77.1044 102.713 74.0973 103.536C73.4008 103.727 72.8926 104.344 72.8922 105.066V105.066C72.8917 106.03 73.776 106.757 74.7042 106.495C78.1456 105.523 81.2219 103.801 83.7305 101.293L92.437 92.5862C92.5303 92.4964 92.623 92.4055 92.7149 92.3136C92.8068 92.2217 92.8976 92.1291 92.9874 92.0357L101.29 83.733C103.104 81.9188 104.507 79.8076 105.512 77.4762C105.921 76.5281 105.188 75.5204 104.156 75.521V75.521C103.514 75.5214 102.947 75.9275 102.696 76.5183C101.852 78.5007 100.692 80.2384 99.2439 81.6867V81.6867C98.9246 82.006 98.3639 81.6902 98.4514 81.2471C98.8061 79.451 98.9743 77.5733 98.9604 75.6395C98.9634 75.6027 98.9663 75.566 98.9691 75.5292C98.9693 75.5264 98.9671 75.5239 98.9642 75.5239V75.5239C98.9615 75.5239 98.9593 75.5218 98.9593 75.5191C98.9429 74.0378 98.8199 72.5239 98.5925 70.989C98.4145 69.7877 98.0303 67.9892 97.8199 67.1636C95.8041 59.2532 91.1507 51.0429 84.1237 44.0159C77.0956 36.9878 68.8838 32.3341 60.9722 30.3187C59.4404 29.9721 58.0308 29.6456 56.3044 29.4321C53.0217 29.026 49.8463 29.1047 46.8916 29.6884C46.447 29.7763 46.1298 29.2135 46.4502 28.893V28.893C47.707 27.6363 49.1817 26.5964 50.8452 25.7922C51.3986 25.5247 51.7718 24.9762 51.7721 24.3615V24.3615C51.7727 23.3036 50.719 22.5709 49.768 23.0345C47.7886 23.9993 45.9837 25.267 44.404 26.8468L26.8443 44.4064ZM34.9146 43.2576C35.1124 42.7977 35.4885 42.4549 35.9676 42.3099V42.3099C37.1246 41.9597 38.2245 42.9072 38.2646 44.1154C38.3758 47.4617 39.026 50.9676 40.1915 54.5023C40.4819 55.3828 41.4652 55.8086 42.3216 55.4535V55.4535C43.1383 55.1148 43.5349 54.1898 43.2534 53.3516C42.6602 51.585 42.2065 49.8331 41.8945 48.116C41.8786 48.0286 41.8631 47.9415 41.848 47.8545C41.2198 44.2405 44.238 41.2222 47.852 41.8505C47.939 41.8656 48.0262 41.8811 48.1135 41.897C49.408 42.1322 50.7223 42.4479 52.0478 42.8433C52.8723 43.0892 53.7613 42.6904 54.0909 41.8956V41.8956C54.453 41.0222 54.0006 40.0216 53.0929 39.7568C49.1979 38.6206 45.3593 38.1175 41.7534 38.2797C41.2352 38.3326 40.4276 38.4523 39.5983 38.5751C39.3234 38.6158 39.0461 38.6569 38.7762 38.696C38.3868 38.7524 38.1519 38.307 38.4301 38.0288V38.0288C42.8234 33.6354 49.6198 31.9354 57.5463 33.3454C65.4576 34.7526 74.1285 39.2347 81.5167 46.6229C88.9049 54.0111 93.387 62.682 94.7942 70.5933C96.2042 78.5198 94.5042 85.3162 90.1108 89.7096V89.7096C89.8227 89.9977 89.3582 89.7475 89.418 89.3444L89.8573 86.3836C90.0303 82.5363 89.4461 78.4243 88.1435 74.2613C87.8643 73.3688 86.8732 72.9313 86.0093 73.2895V73.2895C85.2023 73.6242 84.8046 74.5333 85.0703 75.3656C85.5716 76.9364 85.962 78.4937 86.24 80.0234C86.2558 80.1108 86.2713 80.1979 86.2865 80.285C86.9147 83.8989 83.8965 86.9172 80.2825 86.2889C80.1955 86.2738 80.1083 86.2583 80.021 86.2424C78.0725 85.8884 76.0793 85.352 74.0705 84.6361C73.2256 84.3351 72.2808 84.73 71.9372 85.5586V85.5586C71.5859 86.4057 71.9974 87.3795 72.8628 87.6829C76.6571 89.013 80.4291 89.7526 84.0177 89.8722C85.2278 89.9125 86.1769 91.0142 85.8259 92.173V92.173C85.6806 92.6529 85.3371 93.0295 84.8764 93.2274C80.9899 94.8972 76.2396 95.326 70.9945 94.393C63.0832 92.9857 54.4123 88.5037 47.0241 81.1155C39.6359 73.7273 35.1539 65.0564 33.7466 57.1451C32.8132 51.8975 33.2428 47.1452 34.9146 43.2576Z" fill="white"/>
<path d="M20.6888 60.4087C20.6953 59.582 21.3826 58.9372 22.2093 58.9367V58.9367C23.1009 58.9362 23.8081 59.6816 23.821 60.573C23.8446 62.2017 24.0134 63.9065 24.3348 65.6756C24.6372 67.3394 25.0725 69.0358 25.6389 70.7467C25.9158 71.5832 25.5189 72.5037 24.705 72.8413V72.8413C23.8464 73.1973 22.8609 72.7682 22.5737 71.8843C21.2989 67.9612 20.6598 64.0765 20.6888 60.4087Z" fill="white"/>
<path d="M57.6044 20.8486C56.8563 20.9283 56.3088 21.5729 56.3084 22.3252V22.3252C56.3078 23.2651 57.1483 23.9802 58.0851 23.904C60.4379 23.7125 62.981 23.8481 65.6732 24.3373C66.9135 24.5627 68.1719 24.862 69.4409 25.2343C70.2636 25.4758 71.1479 25.0767 71.4763 24.2847V24.2847C71.8394 23.4091 71.3831 22.4063 70.472 22.1449C66.0173 20.8672 61.6401 20.4192 57.6044 20.8486Z" fill="white"/>
<path d="M66.8308 107.442C67.6802 107.46 68.3561 106.761 68.3566 105.911V105.911C68.3571 105.034 67.6388 104.331 66.7625 104.293C65.3785 104.233 63.9425 104.071 62.4613 103.802C60.2775 103.405 58.0375 102.779 55.7823 101.929C54.931 101.607 53.9661 102.001 53.6176 102.841V102.841C53.2702 103.679 53.6675 104.643 54.5176 104.959C58.7078 106.517 62.8844 107.358 66.8308 107.442Z" fill="white"/>
<path d="M105.876 70.9849C106.653 70.9845 107.312 70.4057 107.369 69.631C107.686 65.3115 107.026 60.6321 105.445 55.9049C105.152 55.0278 104.171 54.6054 103.317 54.9597V54.9597C102.497 55.2994 102.101 56.2289 102.387 57.0686C103.007 58.8893 103.478 60.695 103.8 62.4638C104.234 64.8546 104.39 67.1279 104.285 69.2548C104.239 70.1774 104.953 70.9855 105.876 70.9849V70.9849Z" fill="white"/>
<path d="M48.8478 98.6098C49.5864 99.0403 49.91 99.9471 49.5825 100.737V100.737C49.2061 101.645 48.1296 102.034 47.2774 101.545C44.2732 99.8197 41.3279 97.7277 38.5247 95.2841C37.8066 94.6581 37.7869 93.5577 38.4605 92.8841V92.8841C39.0976 92.2469 40.1224 92.2285 40.802 92.8202C43.3938 95.0763 46.1007 97.0086 48.8478 98.6098Z" fill="white"/>
<path d="M92.8816 38.463C93.5552 37.7894 94.6557 37.8091 95.2816 38.5272C98.0755 41.7323 100.41 45.1231 102.262 48.5753C102.716 49.4222 102.322 50.4646 101.434 50.8328V50.8328C100.629 51.1666 99.7052 50.8215 99.2878 50.0564C97.5638 46.8966 95.4035 43.7749 92.8177 40.8046C92.2261 40.125 92.2445 39.1001 92.8816 38.463V38.463Z" fill="white"/>
<path d="M32.8554 89.6151C33.4813 90.3331 34.5818 90.3528 35.2553 89.6792V89.6792C35.8925 89.0421 35.9108 88.0172 35.3191 87.3376C32.6493 84.2711 30.4329 81.0432 28.682 77.7785C28.2681 77.0067 27.3404 76.656 26.5314 76.9915V76.9915C25.6487 77.3575 25.253 78.3914 25.6985 79.2367C27.5782 82.8029 29.9721 86.3079 32.8554 89.6151Z" fill="white"/>
<path d="M89.6768 35.2578C90.3503 34.5842 90.3308 33.4839 89.6128 32.8579C85.8989 29.6201 81.9357 26.9994 77.9164 25.0311C77.0782 24.6206 76.0788 25.0204 75.7214 25.8824V25.8824C75.3794 26.707 75.753 27.6515 76.5516 28.0504C80.2322 29.8889 83.8858 32.3185 87.3352 35.3217C88.0148 35.9134 89.0396 35.895 89.6768 35.2578V35.2578Z" fill="white"/>
<path d="M128 49.1847V39.1798H168.33V49.1847H153.671V93.4696H142.581V49.1847H128Z" fill="white"/>
<path d="M200.923 68.1861H212.634L230.317 93.4696H217.21L200.923 68.1861ZM188.591 39.1798H199.682V93.4696H188.591V39.1798ZM195.339 48.6418V39.1798H206.817C211.109 39.1798 214.754 39.9037 217.753 41.3514C220.751 42.7991 223.052 44.8156 224.655 47.4009C226.258 49.9861 227.059 53.0108 227.059 56.475C227.059 59.8875 226.258 62.9122 224.655 65.5492C223.052 68.1344 220.751 70.1509 217.753 71.5986C214.754 73.0463 211.109 73.7702 206.817 73.7702H195.339V64.9287H206.119C208.084 64.9287 209.764 64.6185 211.16 63.998C212.608 63.3259 213.72 62.3952 214.495 61.206C215.271 59.9651 215.659 58.4915 215.659 56.7852C215.659 55.079 215.271 53.6312 214.495 52.442C213.72 51.2011 212.608 50.2705 211.16 49.65C209.764 48.9778 208.084 48.6418 206.119 48.6418H195.339Z" fill="white"/>
<path d="M253.903 93.4696V84.0852H281.281V93.4696H253.903ZM253.903 48.5642V39.1798H281.281V48.5642H253.903ZM253.903 69.2719V60.0426H279.73V69.2719H253.903ZM246.768 39.1798H257.471V93.4696H246.768V39.1798Z" fill="white"/>
<path d="M307.49 81.1381L308.809 72.3741H334.868L336.186 81.1381H307.49ZM321.683 56.7852L313.54 75.4764L313.772 77.9582L306.637 93.4696H294.15L321.683 36L349.216 93.4696H336.651L329.671 78.4236L329.826 75.6315L321.683 56.7852Z" fill="white"/>
<path d="M362.861 39.1798H374.184V93.4696H362.861V39.1798ZM381.319 93.4696H369.996V83.3872H380.932C383.31 83.3872 385.559 83.077 387.679 82.4565C389.799 81.7844 391.66 80.7503 393.263 79.3543C394.866 77.9582 396.107 76.2003 396.986 74.0804C397.916 71.9088 398.382 69.3236 398.382 66.3247C398.382 63.3259 397.916 60.7665 396.986 58.6466C396.107 56.475 394.866 54.6912 393.263 53.2952C391.66 51.8992 389.799 50.8909 387.679 50.2705C385.559 49.5983 383.31 49.2622 380.932 49.2622H369.996V39.1798H381.319C387.007 39.1798 391.97 40.2915 396.21 42.5148C400.502 44.7381 403.837 47.892 406.215 51.9767C408.593 56.0097 409.783 60.7923 409.783 66.3247C409.783 71.8571 408.593 76.6656 406.215 80.7503C403.837 84.7832 400.502 87.9114 396.21 90.1347C391.97 92.358 387.007 93.4696 381.319 93.4696Z" fill="white"/>
<path d="M444.7 44.1288V40.2509H467.594V44.1288H444.7ZM444.7 66.1281V62.2502H466.848V66.1281H444.7ZM442.537 40.2509H446.639V92.4526H442.537V40.2509Z" fill="white"/>
<path d="M484.93 40.2509H489.032V92.4526H484.93V40.2509Z" fill="white"/>
</svg>
