<?xml version="1.0" encoding="utf-8"?>
<svg fill="#000000" version="1.1" id="Capa_1" viewBox="0 0 395.001 395" xmlns="http://www.w3.org/2000/svg">
  <rect x="39.498" y="22.825" width="394.003" height="395.985" style="stroke: rgb(0, 0, 0); stroke-width: 0px; fill: rgb(230, 230, 230);" transform="matrix(-0.001023, -0.999999, 0.999999, -0.001746, -23.075161, 434.385315)"/>
  <g>
    <g>
      <path d="M197.501,79.908c-33.775,0-61.253,27.479-61.253,61.254c0,6.903,5.596,12.5,12.5,12.5c6.904,0,12.5-5.597,12.5-12.5 c0-19.99,16.263-36.254,36.253-36.254s36.253,16.264,36.253,36.254c0,11.497-8.314,19.183-22.01,30.474 c-12.536,10.334-26.743,22.048-26.743,40.67v40.104c0,6.902,5.597,12.5,12.5,12.5c6.903,0,12.5-5.598,12.5-12.5v-40.104 c0-6.832,8.179-13.574,17.646-21.381c13.859-11.426,31.106-25.646,31.106-49.763C258.754,107.386,231.275,79.908,197.501,79.908z"/>
      <path d="M197.501,283.024c-8.842,0-16.034,7.193-16.034,16.035c0,8.84,7.192,16.033,16.034,16.033 c8.841,0,16.034-7.193,16.034-16.033C213.535,290.217,206.342,283.024,197.501,283.024z"/>
    </g>
  </g>
</svg>