<svg width="64" height="64" viewBox="0 0 64 64" fill="none" xmlns="http://www.w3.org/2000/svg">
<path d="M21.6731 30.9216C21.4481 30.4985 21.6457 29.9794 22.0883 29.7959V29.7959C22.4918 29.6285 22.9546 29.8024 23.1625 30.1866C24.0203 31.7723 25.0979 33.3396 26.3895 34.8315C26.6838 35.1714 26.674 35.6826 26.3561 36.0005V36.0005C26.0186 36.338 25.4672 36.3274 25.1546 35.9668C23.7589 34.3568 22.5946 32.6542 21.6731 30.9216Z" fill="white"/>
<path d="M29.1236 37.5802C28.7839 37.2829 28.2703 37.2914 27.9511 37.6106V37.6106C27.6149 37.9467 27.624 38.4957 27.9815 38.8091C29.5152 40.1536 31.1349 41.287 32.7859 42.1996C33.2106 42.4343 33.7392 42.238 33.9251 41.7898V41.7898C34.0906 41.3906 33.9228 40.9324 33.5459 40.7208C32.0349 39.8722 30.5442 38.8237 29.1236 37.5802Z" fill="white"/>
<path d="M41.0494 34.1543C41.254 34.5445 41.7205 34.7234 42.1275 34.5546V34.5546C42.5656 34.373 42.7641 33.8615 42.5469 33.4399C41.5803 31.5635 40.3292 29.718 38.8079 27.9826C38.4945 27.6251 37.9455 27.6161 37.6094 27.9522V27.9522C37.2902 28.2714 37.2817 28.7851 37.579 29.1247C38.9888 30.7353 40.148 32.436 41.0494 34.1543Z" fill="white"/>
<path d="M35.9657 25.1558C36.3262 25.4684 36.3368 26.0198 35.9994 26.3572V26.3572C35.6814 26.6752 35.1703 26.6851 34.8303 26.3907C33.147 24.9333 31.3676 23.7484 29.5742 22.8442C29.1766 22.6438 28.9913 22.1726 29.1619 21.7613V21.7613C29.3412 21.329 29.8431 21.1293 30.2626 21.3368C32.2214 22.3053 34.1523 23.5838 35.9657 25.1558Z" fill="white"/>
<path fill-rule="evenodd" clip-rule="evenodd" d="M13.4222 22.2032C12.2768 23.3485 11.4595 24.7305 10.9562 26.2722C10.8034 26.7402 11.168 27.2007 11.6603 27.2004V27.2004C12.0089 27.2002 12.3098 26.9625 12.4156 26.6304C12.8414 25.2937 13.5278 24.1438 14.4453 23.2263V23.2263C14.6777 22.9939 15.0451 23.2219 14.9892 23.5458C14.8229 24.5081 14.7614 25.5147 14.8019 26.5504C14.7995 26.7574 14.8039 26.9688 14.8152 27.1863C14.8156 27.1932 14.8213 27.1987 14.8282 27.1986V27.1986C14.835 27.1986 14.8406 27.2039 14.8412 27.2106C14.8824 27.7279 14.9484 28.2516 15.0389 28.7797C15.0997 29.1348 15.2387 29.7968 15.3251 30.1466V30.1466C16.3133 34.145 18.6534 38.306 22.2086 41.8612C25.7252 45.3778 29.8346 47.7056 33.7931 48.712C33.8722 48.7321 34.0223 48.7695 34.1806 48.8064C34.9448 48.9845 35.7024 49.1129 36.448 49.1907C36.6881 49.2158 37.4111 49.2642 37.5862 49.2704C38.5982 49.3057 39.5821 49.2433 40.5236 49.0806C40.8466 49.0248 41.0739 49.3913 40.8421 49.6231V49.6231C39.8367 50.6286 38.5522 51.3564 37.0486 51.768C36.7004 51.8633 36.4463 52.1718 36.4461 52.5328V52.5328C36.4458 53.0151 36.888 53.3783 37.3521 53.2473C39.0728 52.7614 40.611 51.9005 41.8653 50.6463L46.2185 46.293C46.2652 46.2481 46.3115 46.2027 46.3574 46.1568C46.4034 46.1108 46.4488 46.0645 46.4937 46.0178L50.6451 41.8664C51.5522 40.9593 52.2535 39.9038 52.756 38.738C52.9604 38.264 52.5942 37.7602 52.078 37.7604V37.7604C51.757 37.7606 51.4736 37.9637 51.3479 38.2591C50.9262 39.2503 50.3461 40.1192 49.622 40.8433V40.8433C49.4623 41.003 49.1819 40.845 49.2257 40.6235C49.4031 39.7254 49.4872 38.7866 49.4802 37.8197C49.4817 37.8013 49.4832 37.7829 49.4846 37.7646C49.4847 37.7631 49.4835 37.7619 49.4821 37.7619V37.7619C49.4808 37.7619 49.4797 37.7608 49.4796 37.7595C49.4714 37.0188 49.41 36.2619 49.2962 35.4945C49.2072 34.8938 49.0152 33.9945 48.91 33.5818C47.902 29.6266 45.5754 25.5214 42.0619 22.0079C38.5478 18.4938 34.4419 16.167 30.4861 15.1593C29.7202 14.986 29.0154 14.8227 28.1522 14.716C26.5109 14.5129 24.9231 14.5523 23.4458 14.8441C23.2235 14.8881 23.0649 14.6067 23.2251 14.4465V14.4465C23.8535 13.8181 24.5909 13.2981 25.4226 12.896C25.6993 12.7623 25.8859 12.4881 25.8861 12.1807V12.1807C25.8863 11.6517 25.3595 11.2854 24.884 11.5172C23.8943 11.9996 22.9918 12.6335 22.202 13.4233L13.4222 22.2032ZM17.4573 21.6287C17.5562 21.3988 17.7442 21.2274 17.9838 21.1549V21.1549C18.5623 20.9798 19.1123 21.4536 19.1323 22.0576C19.1879 23.7308 19.513 25.4837 20.0958 27.2511C20.2409 27.6913 20.7326 27.9042 21.1608 27.7267V27.7267C21.5691 27.5573 21.7674 27.0948 21.6267 26.6757C21.3301 25.7924 21.1033 24.9165 20.9473 24.0579C20.9393 24.0143 20.9316 23.9707 20.924 23.9272C20.6099 22.1202 22.119 20.6111 23.926 20.9252C23.9695 20.9327 24.0131 20.9405 24.0567 20.9484C24.704 21.066 25.3612 21.2239 26.0239 21.4216C26.4362 21.5445 26.8806 21.3451 27.0454 20.9477V20.9477C27.2265 20.511 27.0003 20.0107 26.5465 19.8783C24.5989 19.3102 22.6796 19.0587 20.8767 19.1398C20.6176 19.1663 20.2138 19.2261 19.7992 19.2875C19.6617 19.3079 19.5231 19.3284 19.3881 19.3479C19.1934 19.3762 19.0759 19.1534 19.215 19.0143V19.0143C21.4117 16.8177 24.8099 15.9677 28.7732 16.6726C32.7288 17.3763 37.0643 19.6173 40.7584 23.3114C44.4525 27.0055 46.6935 31.3409 47.3971 35.2966C48.1021 39.2598 47.2521 42.658 45.0554 44.8547V44.8547C44.9113 44.9988 44.6791 44.8737 44.709 44.6722L44.9286 43.1917C45.0151 41.2681 44.723 39.2121 44.0718 37.1306C43.9321 36.6843 43.4366 36.4656 43.0047 36.6447V36.6447C42.6011 36.812 42.4023 37.2666 42.5351 37.6827C42.7858 38.4681 42.981 39.2468 43.12 40.0117C43.1279 40.0553 43.1357 40.0989 43.1432 40.1424C43.4574 41.9494 41.9482 43.4585 40.1412 43.1444C40.0977 43.1368 40.0542 43.1291 40.0105 43.1212C39.0362 42.9441 38.0397 42.6759 37.0353 42.318C36.6128 42.1675 36.1404 42.365 35.9686 42.7792V42.7792C35.7929 43.2028 35.9987 43.6897 36.4314 43.8414C38.3286 44.5065 40.2146 44.8762 42.0089 44.936C42.6139 44.9562 43.0884 45.507 42.913 46.0864V46.0864C42.8403 46.3264 42.6686 46.5147 42.4382 46.6137C40.4949 47.4486 38.1198 47.6629 35.4973 47.1964C31.5416 46.4928 27.2062 44.2518 23.5121 40.5577C19.818 36.8636 17.5769 32.5281 16.8733 28.5725C16.4066 25.9487 16.6214 23.5726 17.4573 21.6287Z" fill="white"/>
<path d="M10.3444 30.2043C10.3477 29.7909 10.6913 29.4685 11.1047 29.4683V29.4683C11.5505 29.468 11.904 29.8407 11.9105 30.2865C11.9223 31.1008 12.0067 31.9532 12.1674 32.8378C12.3186 33.6697 12.5362 34.5179 12.8194 35.3733C12.9579 35.7916 12.7595 36.2518 12.3525 36.4206V36.4206C11.9232 36.5986 11.4305 36.384 11.2869 35.9421C10.6495 33.9805 10.3299 32.0382 10.3444 30.2043Z" fill="white"/>
<path d="M28.8022 10.4243C28.4281 10.4641 28.1544 10.7864 28.1542 11.1626V11.1626C28.1539 11.6325 28.5742 11.99 29.0426 11.9519C30.2189 11.8562 31.4905 11.924 32.8366 12.1686C33.4567 12.2813 34.0859 12.4309 34.7205 12.6171C35.1318 12.7378 35.5739 12.5383 35.7381 12.1423V12.1423C35.9197 11.7045 35.6916 11.2031 35.236 11.0724C33.0087 10.4336 30.8201 10.2095 28.8022 10.4243Z" fill="white"/>
<path d="M33.4154 53.721C33.8401 53.7301 34.1781 53.3804 34.1783 52.9556V52.9556C34.1786 52.517 33.8194 52.1652 33.3813 52.1464C32.6892 52.1166 31.9712 52.0356 31.2307 51.901C30.1387 51.7026 29.0188 51.3896 27.8912 50.9642C27.4655 50.8036 26.9831 51.0002 26.8088 51.4204V51.4204C26.6351 51.8394 26.8337 52.3213 27.2588 52.4793C29.3539 53.2583 31.4422 53.6787 33.4154 53.721Z" fill="white"/>
<path d="M52.9382 35.4924C53.3266 35.4922 53.6562 35.2028 53.6846 34.8154C53.8432 32.6557 53.513 30.316 52.7226 27.9524C52.576 27.5138 52.0854 27.3026 51.6583 27.4798V27.4798C51.2486 27.6497 51.0505 28.1144 51.1934 28.5342C51.5033 29.4446 51.7391 30.3474 51.8998 31.2318C52.1171 32.4273 52.1948 33.5639 52.1425 34.6273C52.1197 35.0887 52.4763 35.4927 52.9382 35.4924V35.4924Z" fill="white"/>
<path d="M24.4239 49.3048C24.7932 49.5201 24.955 49.9735 24.7913 50.3684V50.3684C24.603 50.8223 24.0648 51.0171 23.6387 50.7724C22.1366 49.9098 20.664 48.8638 19.2623 47.642C18.9033 47.329 18.8935 46.7788 19.2303 46.442V46.442C19.5488 46.1234 20.0612 46.1142 20.401 46.41C21.6969 47.5381 23.0504 48.5043 24.4239 49.3048Z" fill="white"/>
<path d="M46.4408 19.2314C46.7776 18.8946 47.3278 18.9045 47.6408 19.2635C49.0378 20.8661 50.2049 22.5615 51.1309 24.2876C51.3581 24.711 51.1608 25.2323 50.7169 25.4163V25.4163C50.3144 25.5833 49.8526 25.4107 49.6439 25.0282C48.7819 23.4482 47.7017 21.8874 46.4089 20.4022C46.1131 20.0624 46.1222 19.55 46.4408 19.2314V19.2314Z" fill="white"/>
<path d="M16.4277 44.8075C16.7407 45.1665 17.2909 45.1763 17.6277 44.8396V44.8396C17.9462 44.521 17.9554 44.0085 17.6596 43.6687C16.3247 42.1355 15.2164 40.5215 14.341 38.8892C14.134 38.5033 13.6702 38.328 13.2657 38.4957V38.4957C12.8244 38.6787 12.6265 39.1956 12.8493 39.6183C13.7891 41.4014 14.986 43.1539 16.4277 44.8075Z" fill="white"/>
<path d="M44.8384 17.6288C45.1752 17.2921 45.1654 16.7419 44.8064 16.4289C42.9495 14.81 40.9678 13.4997 38.9582 12.5155C38.5391 12.3103 38.0394 12.5101 37.8607 12.9412V12.9412C37.6897 13.3534 37.8765 13.8257 38.2758 14.0251C40.1161 14.9444 41.9429 16.1592 43.6676 17.6608C44.0074 17.9566 44.5198 17.9474 44.8384 17.6288V17.6288Z" fill="white"/>
</svg>
