<svg enable-background="new 0 0 1024 1024" viewBox="0 0 1024 1024" xmlns="http://www.w3.org/2000/svg"><circle cx="512" cy="512" fill="#f3ba2f" r="512"/><g fill="#fff"><path d="m404.9 468 107.1-107.1 107.1 107.2 62.3-62.3-169.4-169.5-169.4 169.4z"/><path d="m254.6 467.9h88.1v88.1h-88.1z" transform="matrix(.7071 -.7071 .7071 .7071 -274.5652 361.1246)"/><path d="m404.9 556 107.1 107.1 107.1-107.2 62.4 62.3h-.1l-169.4 169.5-169.4-169.4-.1-.1z"/><path d="m681.3 468h88.1v88.1h-88.1z" transform="matrix(.7071 -.7071 .7071 .7071 -149.5987 662.8792)"/><path d="m575.2 512-63.2-63.3-46.7 46.8-5.4 5.3-11.1 11.1-.1.1.1.1 63.2 63.2z"/></g></svg>