<?xml version="1.0" encoding="utf-8"?>
<svg fill="none" viewBox="-12.247 -24.528 100 100" xmlns="http://www.w3.org/2000/svg">
  <rect x="273.636" y="67.633" width="100" height="100" style="stroke: rgb(0, 0, 0); stroke-width: 0px; fill: rgb(230, 230, 230);" transform="matrix(-0.00008, -1, 1, -0.00008, -79.854111, 349.117401)"/>
  <path d="M 56.261 31.489 L 56.261 9.132 L 60.755 9.132 L 60.755 31.489 L 56.261 31.489 Z" fill="#f7a600"/>
  <g fill="#15192a" transform="matrix(1, 0, 0, 1, -3.463, -0.548)">
    <path d="M 7.35 38.358 L -2.284 38.358 L -2.284 16.001 L 6.963 16.001 C 11.457 16.001 14.075 18.451 14.075 22.281 C 14.075 24.761 12.393 26.364 11.229 26.898 C 12.619 27.525 14.397 28.938 14.397 31.922 C 14.397 36.097 11.457 38.358 7.35 38.358 Z M 6.607 19.895 L 2.21 19.895 L 2.21 25.045 L 6.606 25.045 C 8.513 25.045 9.58 24.009 9.58 22.469 C 9.58 20.932 8.513 19.895 6.606 19.895 L 6.607 19.895 Z M 6.897 28.97 L 2.211 28.97 L 2.211 34.466 L 6.899 34.466 C 8.936 34.466 9.904 33.21 9.904 31.702 C 9.904 30.195 8.934 28.97 6.899 28.97 L 6.897 28.97 Z M 28.104 29.19 L 28.104 38.358 L 23.642 38.358 L 23.642 29.19 L 16.723 16.001 L 21.605 16.001 L 25.905 25.013 L 30.14 16.001 L 35.021 16.001 L 28.104 29.19 Z M 47.762 38.358 L 38.128 38.358 L 38.128 16.001 L 47.374 16.001 C 51.868 16.001 54.487 18.451 54.487 22.281 C 54.487 24.761 52.805 26.364 51.641 26.898 C 53.031 27.525 54.809 28.938 54.809 31.922 C 54.809 36.097 51.869 38.358 47.762 38.358 Z M 47.019 19.895 L 42.622 19.895 L 42.622 25.045 L 47.019 25.045 C 48.926 25.045 49.993 24.009 49.993 22.469 C 49.993 20.932 48.926 19.895 47.019 19.895 L 47.019 19.895 Z M 47.309 28.97 L 42.621 28.97 L 42.621 34.466 L 47.309 34.466 C 49.347 34.466 50.315 33.21 50.315 31.702 C 50.315 30.195 49.347 28.97 47.309 28.97 L 47.309 28.97 Z M 78.702 19.896 L 78.702 38.36 L 74.208 38.36 L 74.208 19.895 L 68.196 19.895 L 68.196 16.001 L 84.716 16.001 L 84.716 19.895 L 78.702 19.896 Z"/>
  </g>
</svg>