<?xml version="1.0" encoding="utf-8"?>
<svg viewBox="0 0 150 150" xmlns="http://www.w3.org/2000/svg">
  <defs>
    <style>
      .cls-1 {
        fill: #14e0a1;
      }

      .cls-1, .cls-2 {
        fill-rule: evenodd;
      }

      .cls-2 {
        fill: #0051d2;
      }
    </style>
  </defs>
  <path class="cls-3" d="M0,0H150V150H0V0Z" style="fill: rgb(230,230,230)"/>
  <path class="cls-2" d="M 75.006 97.21 C 62.245 97.21 51.901 87.266 51.901 75.001 C 51.901 62.736 62.245 52.793 75.006 52.793 L 75.006 34.615 C 51.801 34.615 32.992 52.696 32.992 75.001 C 32.992 97.305 51.801 115.386 75 115.386 C 98.198 115.386 117.008 97.305 117.008 75.001 L 98.104 75.001 C 98.104 87.266 87.76 97.21 75 97.21 L 75.006 97.21 Z" style=""/>
  <path class="cls-1" d="M 75 75.001 L 98.104 75.001 L 98.104 52.786 L 75 52.786 L 75 74.995 L 75 75.001 Z" style=""/>
</svg>