<?xml version="1.0" encoding="utf-8"?>
<svg viewBox="0 -0.001 80 80" xmlns="http://www.w3.org/2000/svg">
  <rect x="8.451" y="5.016" width="80" height="80" style="stroke-width: 0px; stroke: rgb(0, 0, 0); paint-order: fill markers; fill: rgb(0, 0, 0);" transform="matrix(0.003305, -0.999995, 0.999995, 0.003305, -5.175905, 88.30098)"/>
  <path d="M 26.663 30.685 L 8.171 30.685 C 8.057 30.685 7.947 30.729 7.866 30.806 C 7.787 30.882 7.742 30.988 7.741 31.099 L 7.741 48.899 C 7.741 49.009 7.786 49.114 7.867 49.192 C 7.947 49.269 8.057 49.313 8.171 49.313 L 26.663 49.313 C 26.777 49.313 26.886 49.269 26.967 49.192 C 27.047 49.116 27.092 49.01 27.093 48.899 L 27.093 31.099 C 27.093 30.989 27.048 30.884 26.967 30.806 C 26.884 30.728 26.776 30.684 26.663 30.685 Z M 20.642 42.69 C 20.642 42.799 20.597 42.904 20.516 42.983 C 20.433 43.061 20.325 43.104 20.213 43.104 L 14.622 43.104 C 14.508 43.104 14.399 43.06 14.317 42.983 C 14.238 42.907 14.192 42.801 14.192 42.69 L 14.192 37.308 C 14.192 37.199 14.237 37.094 14.317 37.016 C 14.399 36.938 14.508 36.894 14.622 36.894 L 20.213 36.894 C 20.326 36.894 20.436 36.938 20.516 37.016 C 20.596 37.091 20.641 37.197 20.642 37.308 L 20.642 42.69 Z M 65.376 36.895 L 59.785 36.895 C 59.547 36.895 59.354 37.081 59.354 37.309 L 59.354 42.691 C 59.354 42.919 59.547 43.104 59.785 43.104 L 65.375 43.104 C 65.612 43.104 65.806 42.919 65.806 42.691 L 65.806 37.309 C 65.806 37.081 65.612 36.895 65.375 36.895 L 65.376 36.895 Z M 58.926 30.685 L 53.336 30.685 C 53.098 30.685 52.905 30.87 52.905 31.1 L 52.905 36.481 C 52.905 36.71 53.098 36.895 53.336 36.895 L 58.926 36.895 C 59.163 36.895 59.356 36.71 59.356 36.481 L 59.356 31.1 C 59.356 30.87 59.163 30.686 58.926 30.686 L 58.926 30.685 Z M 71.829 30.685 L 66.238 30.685 C 66.001 30.685 65.809 30.87 65.809 31.1 L 65.809 36.481 C 65.809 36.71 66.001 36.895 66.239 36.895 L 71.829 36.895 C 72.067 36.895 72.259 36.71 72.259 36.481 L 72.259 31.1 C 72.259 30.87 72.067 30.686 71.829 30.686 L 71.829 30.685 Z M 58.926 43.104 L 53.336 43.104 C 53.098 43.104 52.905 43.29 52.905 43.518 L 52.905 48.9 C 52.905 49.128 53.098 49.314 53.336 49.314 L 58.926 49.314 C 59.163 49.314 59.356 49.128 59.356 48.9 L 59.356 43.518 C 59.356 43.29 59.163 43.104 58.926 43.104 Z M 71.829 43.104 L 66.238 43.104 C 66.001 43.104 65.809 43.29 65.809 43.518 L 65.809 48.9 C 65.809 49.128 66.001 49.314 66.239 49.314 L 71.829 49.314 C 72.067 49.314 72.259 49.128 72.259 48.9 L 72.259 43.518 C 72.259 43.29 72.067 43.104 71.829 43.104 Z M 49.242 30.685 L 43.652 30.685 C 43.414 30.685 43.222 30.87 43.222 31.1 L 43.222 36.481 C 43.222 36.71 43.414 36.895 43.652 36.895 L 49.242 36.895 C 49.48 36.895 49.672 36.71 49.672 36.481 L 49.672 31.1 C 49.672 30.87 49.48 30.686 49.242 30.686 L 49.242 30.685 Z M 49.242 43.104 L 43.652 43.104 C 43.414 43.104 43.222 43.29 43.222 43.518 L 43.222 48.9 C 43.222 49.128 43.414 49.314 43.652 49.314 L 49.242 49.314 C 49.48 49.314 49.672 49.128 49.672 48.9 L 49.672 43.518 C 49.672 43.29 49.48 43.104 49.242 43.104 Z M 43.22 37.304 C 43.22 37.194 43.174 37.089 43.094 37.011 C 43.011 36.933 42.903 36.889 42.79 36.89 L 36.769 36.89 L 36.769 31.099 C 36.769 30.989 36.724 30.884 36.643 30.806 C 36.56 30.728 36.451 30.684 36.339 30.685 L 30.748 30.685 C 30.634 30.685 30.524 30.729 30.444 30.806 C 30.364 30.882 30.319 30.988 30.318 31.099 L 30.318 48.89 C 30.318 49 30.363 49.105 30.444 49.183 C 30.524 49.26 30.634 49.304 30.748 49.304 L 36.339 49.304 C 36.453 49.304 36.563 49.26 36.643 49.183 C 36.724 49.105 36.769 49 36.769 48.89 L 36.769 43.099 L 42.79 43.099 C 42.903 43.099 43.013 43.055 43.094 42.978 C 43.173 42.902 43.219 42.796 43.219 42.685 L 43.22 37.304 Z" fill="#ffffff"/>
</svg>