<svg width="80" height="80" viewBox="0 0 16 16" fill="none" xmlns="http://www.w3.org/2000/svg"><path d="M4.559 7.644a.27.27 0 0 1 .138-.375.285.285 0 0 1 .358.13 8.7 8.7 0 0 0 1.076 1.549.286.286 0 0 1-.011.39.273.273 0 0 1-.4-.012 9 9 0 0 1-1.161-1.682m2.484 2.22a.286.286 0 0 0-.391.01.274.274 0 0 0 .01.4 9 9 0 0 0 1.601 1.13.27.27 0 0 0 .38-.137.285.285 0 0 0-.126-.356 8.8 8.8 0 0 1-1.474-1.047m3.975-1.142c.068.13.223.19.36.133a.27.27 0 0 0 .139-.371 9 9 0 0 0-1.246-1.82.273.273 0 0 0-.4-.01.286.286 0 0 0-.01.391c.47.537.856 1.104 1.157 1.677m-1.695-3c.12.105.124.288.011.4a.286.286 0 0 1-.39.012 8.6 8.6 0 0 0-1.751-1.182.284.284 0 0 1-.138-.361.27.27 0 0 1 .367-.142 9 9 0 0 1 1.901 1.273" fill="#fff"/><path fill-rule="evenodd" clip-rule="evenodd" d="M1.809 4.738a3.4 3.4 0 0 0-.822 1.357c-.051.156.07.309.234.309.117 0 .217-.08.252-.19.142-.446.37-.829.677-1.135.077-.077.2-.001.181.107q-.083.482-.062 1.001-.002.104.004.212 0 .004.004.004.005 0 .005.004a6 6 0 0 0 .161.979c.33 1.333 1.11 2.72 2.294 3.905C5.91 12.463 7.28 13.239 8.6 13.575l.13.031a6 6 0 0 0 1.134.155q.508.017.98-.064c.107-.018.183.104.106.181a2.8 2.8 0 0 1-1.265.715.27.27 0 0 0-.2.255c0 .16.147.282.301.238a3.4 3.4 0 0 0 1.505-.867l1.45-1.45.092-.093 1.384-1.383c.303-.303.537-.655.704-1.043.068-.158-.054-.326-.226-.326a.27.27 0 0 0-.243.166q-.212.497-.576.862c-.053.053-.146 0-.132-.074q.089-.45.085-.934l.002-.019h-.001l-.001-.001a6 6 0 0 0-.061-.755c-.03-.2-.094-.5-.129-.638-.336-1.318-1.112-2.687-2.283-3.858S8.815 2.726 7.497 2.39c-.256-.058-.49-.112-.778-.148a5 5 0 0 0-1.57.043c-.073.015-.126-.079-.073-.132q.316-.315.733-.517a.27.27 0 0 0 .154-.239c0-.176-.175-.298-.334-.22q-.497.24-.894.635zm1.345-.191a.28.28 0 0 1 .175-.158c.193-.059.376.1.383.3.019.558.127 1.143.321 1.732a.265.265 0 0 0 .355.158.28.28 0 0 0 .156-.35 6 6 0 0 1-.235-.916.855.855 0 0 1 1.045-.993q.323.06.655.158a.28.28 0 0 0 .34-.158.264.264 0 0 0-.166-.357 5.9 5.9 0 0 0-1.89-.246c-.086.009-.22.029-.359.05l-.137.02c-.065.009-.104-.065-.057-.112.732-.732 1.865-1.015 3.186-.78 1.318.234 2.763.981 3.995 2.213 1.231 1.231 1.978 2.676 2.213 3.995.235 1.32-.049 2.454-.78 3.186-.049.048-.126.006-.116-.061l.073-.494a5.9 5.9 0 0 0-.286-2.02.264.264 0 0 0-.356-.162.28.28 0 0 0-.156.346q.126.393.195.776l.008.044a.855.855 0 0 1-1 1l-.044-.007a6.3 6.3 0 0 1-.992-.268.28.28 0 0 0-.356.154.265.265 0 0 0 .154.354 6.3 6.3 0 0 0 1.86.365c.201.006.36.19.301.383a.28.28 0 0 1-.158.176c-.648.278-1.44.35-2.314.194-1.318-.234-2.764-.981-3.995-2.213C3.941 9.625 3.194 8.18 2.959 6.861c-.155-.874-.084-1.666.195-2.314" fill="#fff"/><path d="M.783 7.405a.25.25 0 0 1 .253-.245c.149 0 .267.124.269.273q.006.407.085.85.075.417.218.845a.28.28 0 0 1-.156.35.265.265 0 0 1-.355-.16 6 6 0 0 1-.314-1.913M6.935.812a.245.245 0 0 0-.216.246c0 .157.14.276.296.263q.59-.05 1.265.072.311.057.628.15a.28.28 0 0 0 .34-.158.264.264 0 0 0-.168-.357C8.338.815 7.608.74 6.935.812m1.538 14.432a.25.25 0 0 0 .254-.255.274.274 0 0 0-.265-.27q-.346-.015-.717-.082a6.4 6.4 0 0 1-1.113-.312.28.28 0 0 0-.361.152c-.058.14.008.3.15.353a6.3 6.3 0 0 0 2.052.414m6.507-6.076c.13 0 .24-.097.25-.226.052-.72-.058-1.5-.321-2.287a.265.265 0 0 0-.355-.158.28.28 0 0 0-.155.352q.155.455.236.899.107.598.08 1.132a.27.27 0 0 0 .266.288m-9.505 4.604a.285.285 0 0 1 .122.355.27.27 0 0 1-.384.134 9 9 0 0 1-1.459-1.043.273.273 0 0 1-.01-.4.286.286 0 0 1 .39-.01c.432.375.883.697 1.34.964m7.34-10.024a.273.273 0 0 1 .4.01c.466.535.855 1.1 1.163 1.675a.27.27 0 0 1-.138.376.285.285 0 0 1-.357-.13 8.7 8.7 0 0 0-1.079-1.541.286.286 0 0 1 .01-.39M2.81 12.273c.105.12.288.123.4.01a.286.286 0 0 0 .011-.39A8.7 8.7 0 0 1 2.115 10.3a.285.285 0 0 0-.358-.131.27.27 0 0 0-.14.374 9 9 0 0 0 1.194 1.73m9.469-9.06a.273.273 0 0 0-.01-.4 9 9 0 0 0-1.95-1.304.27.27 0 0 0-.365.142.284.284 0 0 0 .138.361 8.6 8.6 0 0 1 1.797 1.212.286.286 0 0 0 .39-.01" fill="#fff"/></svg>