<svg width="40" height="40" viewBox="0 0 40 40" fill="none" xmlns="http://www.w3.org/2000/svg">
<rect width="40" height="40" fill="#31445F"/>
<path d="M32.9139 26C33.3174 26 33.6287 25.8903 33.848 25.671C34.0588 25.4517 34.1642 25.1402 34.1642 24.7366L34.1638 15.2634C34.1638 14.8598 34.0588 14.5483 33.848 14.329C33.6287 14.1097 33.3174 14 32.9139 14H31.7642V14.9738H33.1243V20.1982V20.5471V20.8653V25.013H31.7642V26H32.9139Z" fill="#F9BD29"/>
<path d="M7.25021 26C6.84664 26 6.5352 25.8903 6.31586 25.671C6.1053 25.4517 6 25.1402 6 24.7366L6.00007 15.2634C6.00007 14.8598 6.10537 14.5483 6.31594 14.329C6.53524 14.1097 6.84671 14 7.25029 14H8.39989V14.9738H7.03972V20.1982V20.5471V20.8653L7.03965 25.013H8.39981V26H7.25021Z" fill="#F9BD29"/>
<path d="M11.4343 20.3852L9.38989 23.1111V24H10.3973L12.3825 21.1556C12.4319 21.0864 12.4565 21.0173 12.4565 20.9482C12.4565 20.879 12.4467 20.7901 12.4269 20.6815C12.3973 20.5728 12.3825 20.4691 12.3825 20.3704C12.3825 20.2519 12.4022 20.1778 12.4417 20.1481C12.4911 20.1086 12.58 20.0839 12.7084 20.0741H12.8269H12.9454C13.0738 20.0839 13.1627 20.1086 13.2121 20.1481C13.2516 20.1778 13.2714 20.2519 13.2714 20.3704C13.2714 20.4691 13.2566 20.5728 13.2269 20.6815C13.2072 20.7901 13.1973 20.879 13.1973 20.9482C13.1973 21.0173 13.222 21.0864 13.2714 21.1556L15.2565 24H16.2641V23.1111L14.2196 20.3852C14.1998 20.3555 14.1641 20.334 14.1195 20.3191C14.0753 20.3043 14.0306 20.2988 13.9973 20.2963C13.9639 20.2938 13.9133 20.2963 13.8491 20.2963C13.785 20.2963 13.6961 20.2913 13.6269 20.2815C13.5578 20.2716 13.5035 20.2469 13.464 20.2074C13.4146 20.158 13.3899 20.0889 13.3899 20C13.3899 19.9111 13.4146 19.8469 13.464 19.8074C13.5035 19.758 13.5578 19.7284 13.6269 19.7185C13.6961 19.7086 13.77 19.7037 13.8491 19.7037H13.9973H13.9984C14.0378 19.7037 14.0861 19.7037 14.1308 19.6889C14.1754 19.6739 14.1998 19.6444 14.2196 19.6148L16.2641 16.8889V16H15.2565L13.2714 18.8444C13.222 18.9136 13.1973 18.9827 13.1973 19.0519C13.1973 19.121 13.2072 19.2099 13.2269 19.3185C13.2566 19.4173 13.2714 19.521 13.2714 19.6296C13.2714 19.7482 13.2516 19.8272 13.2121 19.8667C13.1627 19.8963 13.0738 19.916 12.9454 19.9259H12.8269H12.7084C12.58 19.916 12.4911 19.8963 12.4417 19.8667C12.4022 19.8272 12.3825 19.7482 12.3825 19.6296C12.3825 19.521 12.3973 19.4173 12.4269 19.3185C12.4467 19.2099 12.4565 19.121 12.4565 19.0519C12.4565 18.9827 12.4319 18.9136 12.3825 18.8444L10.3973 16H9.38989V16.8889L11.4343 19.6148C11.4541 19.6444 11.4784 19.6739 11.5232 19.6889C11.5677 19.7037 11.6162 19.7037 11.6555 19.7037H11.6565H11.8047C11.8837 19.7037 11.9578 19.7086 12.0269 19.7185C12.096 19.7284 12.1504 19.758 12.1899 19.8074C12.2393 19.8469 12.264 19.9111 12.264 20C12.264 20.0889 12.2393 20.158 12.1899 20.2074C12.1504 20.2469 12.096 20.2716 12.0269 20.2815C11.9578 20.2913 11.8689 20.2963 11.8047 20.2963C11.7405 20.2963 11.6898 20.2938 11.6565 20.2963C11.6232 20.2988 11.5787 20.3043 11.5342 20.3191C11.4896 20.334 11.4541 20.3555 11.4343 20.3852Z" fill="#F9BD29"/>
<path d="M24.5996 22.4564L27.8351 18.8052C27.9934 18.6271 28.1666 18.5133 28.3549 18.4638C28.5427 18.4045 28.7602 18.4292 29.0077 18.538C29.1761 18.6073 29.3542 18.5924 29.5421 18.4935C29.7401 18.3847 29.9032 18.2412 30.0319 18.0631C30.1702 17.8751 30.2396 17.5647 30.2396 17.436C30.2396 17.3569 30.2197 17.3024 30.1804 17.2728C30.1507 17.2332 30.0765 17.2084 29.9576 17.1985C29.8391 17.1887 29.6362 17.1837 29.349 17.1837H24.5996V16H30.774V17.5288L27.5385 21.1948C27.4294 21.3136 27.3157 21.4075 27.1969 21.4768C27.0881 21.5362 26.9644 21.5659 26.826 21.5659C26.6876 21.5659 26.5342 21.5312 26.3659 21.462C26.1975 21.3927 26.0145 21.4125 25.8169 21.5213C25.6286 21.6203 25.4655 21.7637 25.3267 21.9518C25.1981 22.1299 25.134 22.4353 25.134 22.564C25.134 22.6431 25.1486 22.7025 25.1786 22.7421C25.218 22.7717 25.2971 22.7915 25.416 22.8014C25.5345 22.8113 25.7374 22.8163 26.0246 22.8163H30.774V24H24.5996V22.4564Z" fill="#F9BD29"/>
<path d="M19.8207 20.9481C19.8207 20.8393 19.8121 20.7639 19.7956 20.7095C19.7787 20.6551 19.7536 20.6133 19.7326 20.5964C19.7116 20.5796 19.67 20.5672 19.6321 20.5588C19.5946 20.5504 19.5781 20.5463 19.5444 20.5337C19.5106 20.521 19.4776 20.5003 19.4439 20.4709C19.4101 20.4415 19.3767 20.3955 19.3434 20.3453L16.9951 16.8791V16H17.951L19.7345 18.6373C19.8935 18.8633 19.9771 19.0769 19.9857 19.2778C19.994 19.4787 19.8211 19.6922 19.7709 19.9183C19.7371 20.0774 19.7247 20.1988 19.733 20.2825C19.7499 20.3578 19.8084 20.4206 19.9089 20.4709C20.0094 20.5127 20.1811 20.5337 20.4237 20.5337C20.675 20.5337 20.8509 20.5127 20.9514 20.4709C21.0519 20.4206 21.1021 20.3578 21.1021 20.2825C21.1104 20.1988 21.0976 20.0774 21.0642 19.9183C21.014 19.6671 20.8411 19.4494 20.8494 19.2652C20.8576 19.081 20.9371 18.8801 21.0879 18.6624L22.8714 16H23.8396V16.8791L21.4917 20.3327C21.458 20.383 21.4246 20.4206 21.3912 20.4457C21.3575 20.4709 21.3241 20.4918 21.2907 20.5085C21.2574 20.5253 21.2322 20.5378 21.2026 20.5462C21.1734 20.5546 21.1317 20.5755 21.1021 20.5964C21.0729 20.6174 21.0522 20.655 21.0395 20.7095C21.0267 20.764 21.0271 20.8393 21.0271 20.9481C21.0271 21.0569 21.0271 23.9997 21.0271 23.9997H19.8207C19.8207 23.9997 19.8207 21.0569 19.8207 20.9481Z" fill="#F9BD29"/>
</svg>
